<?xml version="1.0" standalone="no"?>
<!DOCTYPE svg PUBLIC "-//W3C//DTD SVG 20010904//EN"
 "http://www.w3.org/TR/2001/REC-SVG-20010904/DTD/svg10.dtd">
<svg version="1.0" xmlns="http://www.w3.org/2000/svg"
 width="700.000000pt" height="700.000000pt" viewBox="0 0 700.000000 700.000000"
 preserveAspectRatio="xMidYMid meet">
<metadata>
Created by potrace 1.14, written by Peter Selinger 2001-2017
</metadata>
<g transform="translate(0.000000,700.000000) scale(0.100000,-0.100000)"
fill="#000000" stroke="none">
<path d="M4802 6989 c-97 -12 -226 -36 -287 -53 -5 -2 -23 -6 -40 -11 -86 -21
-220 -72 -310 -116 -391 -193 -691 -479 -894 -851 -73 -135 -165 -387 -186
-508 -3 -19 -8 -42 -10 -50 -4 -16 -13 -71 -25 -165 -11 -81 -5 -392 9 -485
16 -107 49 -241 83 -345 40 -120 45 -133 104 -252 l51 -103 -1640 -1640 -1641
-1641 364 -364 c201 -201 368 -365 372 -365 4 0 93 85 196 189 l189 189 209
-209 209 -209 343 343 344 344 -206 206 c-113 113 -206 208 -206 212 0 3 115
121 255 261 l254 254 205 -205 c113 -113 208 -205 213 -205 4 0 161 153 348
340 l340 340 -209 209 -209 209 502 502 503 503 106 -50 c216 -102 340 -143
542 -177 1004 -170 1969 446 2234 1426 79 291 90 638 30 912 -3 11 -7 32 -10
46 -49 244 -206 570 -383 790 -67 84 -208 227 -291 295 -227 186 -535 338
-793 390 -10 2 -26 6 -35 9 -21 6 -55 13 -147 27 -84 14 -395 19 -483 8z m773
-872 c200 -48 373 -183 463 -362 104 -205 102 -449 -4 -645 -93 -170 -232
-282 -424 -341 -105 -32 -273 -32 -379 0 -456 139 -649 663 -388 1052 115 172
293 282 497 306 25 3 46 6 47 7 3 3 167 -12 188 -17z"/>
<path d="M5360 5715 c-251 -65 -304 -392 -85 -521 181 -106 410 12 428 221 8
85 -33 183 -97 238 -63 54 -172 81 -246 62z"/>
</g>
</svg>
